<svg width="1448" height="544" viewBox="0 0 1448 544" fill="none" xmlns="http://www.w3.org/2000/svg">
<g clip-path="url(#clip0_1_33)">
<path d="M362.282 362.184H181.459V181.361H362.282V362.184Z" fill="#9F998A"/>
<path d="M723.928 362.184H543.105V181.361H723.928V362.184Z" fill="#9F998A"/>
<path d="M1085.57 362.184H904.751V181.361H1085.57V362.184Z" fill="#9F998A"/>
<path d="M1447.22 362.184H1266.4V181.361H1447.22V362.184Z" fill="#9F998A"/>
<path d="M904.753 543.007H723.931V362.184H904.753V543.007Z" fill="#9F998A"/>
<path d="M543.107 543.007H362.285V362.184H543.107V543.007Z" fill="#9F998A"/>
<path d="M181.461 543.007H0.638428V362.184H181.461V543.007Z" fill="#9F998A"/>
<path d="M1266.39 543.007H1085.57V362.184H1266.39V543.007Z" fill="#9F998A"/>
<path d="M181.461 181.361H0.638428V0.538818H181.461V181.361Z" fill="#9F998A"/>
<path d="M543.107 181.361H362.285V0.538818H543.107V181.361Z" fill="#9F998A"/>
<path d="M904.753 181.361H723.931V0.538818H904.753V181.361Z" fill="#9F998A"/>
<path d="M1266.39 181.361H1085.57V0.538818H1266.39V181.361Z" fill="#9F998A"/>
</g>
<defs>
<clipPath id="clip0_1_33">
<rect width="1446.72" height="542.892" fill="white" transform="translate(0.638428 0.538849)"/>
</clipPath>
</defs>
</svg>
