<svg width="26" height="25" viewBox="0 0 26 25" fill="none" xmlns="http://www.w3.org/2000/svg">
<path d="M13.0338 16.0344L13.0148 16.0164C13.5498 16.0703 14.0901 16.0046 14.5968 15.8241C15.1033 15.6436 15.5635 15.3528 15.9439 14.9727C16.3242 14.5926 16.6155 14.1326 16.7963 13.6262C16.9772 13.1197 17.0433 12.5795 16.9898 12.0444L17.0088 12.0624C16.9556 11.4328 17.0406 10.7993 17.2575 10.2059C17.4745 9.61257 17.8184 9.07374 18.2651 8.62696C18.7119 8.18028 19.2507 7.83635 19.844 7.61946C20.4374 7.40247 21.0709 7.31758 21.7005 7.37073L21.6815 7.35273C22.4346 7.42346 23.1911 7.26014 23.848 6.88507C24.505 6.50999 25.0301 5.9414 25.352 5.25687C25.6738 4.57235 25.7767 3.8052 25.6465 3.06006C25.5164 2.31492 25.1596 1.62808 24.6246 1.0932C24.0898 0.55834 23.4029 0.201476 22.6578 0.0713209C21.9127 -0.0588446 21.1455 0.0440144 20.461 0.365875C19.7764 0.687726 19.2079 1.21292 18.8328 1.8698C18.4577 2.52667 18.2944 3.28327 18.3651 4.03638L18.3471 4.01739C18.4004 4.64696 18.3156 5.28059 18.0988 5.87402C17.8819 6.46744 17.5379 7.00637 17.0913 7.45314C16.6445 7.89982 16.1055 8.24375 15.5121 8.46064C14.9186 8.67754 14.285 8.7623 13.6555 8.70902L13.6734 8.72801C13.1384 8.67414 12.598 8.73981 12.0914 8.92032C11.5849 9.10073 11.1247 9.39158 10.7443 9.7717C10.3639 10.1518 10.0727 10.6118 9.89182 11.1182C9.71101 11.6247 9.64494 12.1649 9.69842 12.7L9.68043 12.6821C9.7334 13.3115 9.64834 13.945 9.43135 14.5383C9.21426 15.1315 8.87043 15.6704 8.42375 16.1171C7.97701 16.5637 7.43824 16.9076 6.84497 17.1247C6.25171 17.3416 5.61823 17.4267 4.98873 17.3737L5.00672 17.3917C4.25362 17.321 3.49702 17.4843 2.84014 17.8594C2.18326 18.2345 1.65807 18.803 1.33622 19.4876C1.01436 20.1721 0.91149 20.9393 1.04166 21.6844C1.17182 22.4295 1.52868 23.1164 2.06355 23.6512C2.59842 24.1862 3.28526 24.543 4.03041 24.6731C4.77555 24.8032 5.5427 24.7004 6.22723 24.3786C6.91175 24.0567 7.48034 23.5316 7.85541 22.8747C8.23055 22.2177 8.39386 21.4612 8.3231 20.7081L8.34209 20.7261C8.28892 20.0965 8.37387 19.463 8.59087 18.8696C8.80776 18.2763 9.15169 17.7375 9.59837 17.2907C10.0451 16.844 10.584 16.5001 11.1773 16.2832C11.7707 16.0662 12.4042 15.9812 13.0338 16.0344Z" fill="#E6FF02"/>
</svg>
